<svg xmlns="http://www.w3.org/2000/svg" viewBox="0 0 124.87 35.68"><title>Fichier 3</title><g id="Calque_2" data-name="Calque 2"><g id="Calque_1-2" data-name="Calque 1"><path d="M11,31.34a6,6,0,0,0,5.49-3.6L20,30a10.26,10.26,0,0,1-9.22,5.4A10.82,10.82,0,0,1,0,24.36a10.82,10.82,0,0,1,10.8-11A10.21,10.21,0,0,1,20,18.74L16.47,21A5.94,5.94,0,0,0,11,17.39c-4.27,0-6.61,3.15-6.61,7S6.75,31.34,11,31.34Z"/><path d="M33.07,13.34a10.9,10.9,0,0,1,11,11,11,11,0,1,1-22,0A10.89,10.89,0,0,1,33.07,13.34Zm0,18c4.28,0,6.53-3.15,6.53-7s-2.25-7-6.53-7-6.52,3.15-6.52,7S28.8,31.34,33.07,31.34Z"/><path d="M48.15.74h4.5V15.59l.22.22.23-.22a6.45,6.45,0,0,1,4.95-2.25c5.4,0,8.55,3.6,8.55,8.55v13H62.1v-13c-.14-2.88-1.53-4.5-4.5-4.5a5,5,0,0,0-5,4.77V34.94h-4.5Z"/><path d="M74.7,25.49a5.73,5.73,0,0,0,6.07,5.85c2.7,0,4.55-1.35,5.22-3.15L89.77,30a10.33,10.33,0,0,1-9.22,5.4c-5.63,0-10.35-4.5-10.35-11s4.5-11,10.35-11c5.4,0,9.9,4.27,9.9,10.8L90,25.49Zm.22-4h10.8a5,5,0,0,0-5.17-4.14A5.47,5.47,0,0,0,74.92,21.53Z"/><path d="M112.05,15.59a7.3,7.3,0,0,1,5.17-2.25c5,0,7.65,3.15,7.65,7.65v14h-4.5V21.44c0-2.7-1.35-4.05-3.6-4.05a5,5,0,0,0-5,4.77V34.94h-4.5V21.44c0-2.7-1.35-4.05-3.6-4.05a5,5,0,0,0-5,4.77V34.94h-4.5V13.79h4l.45,1.8.23.22.22-.22a6.45,6.45,0,0,1,5-2.25c3.24,0,5.58,1.39,6.75,3.6Z"/><ellipse cx="50.4" cy="0.74" rx="2.25" ry="0.74"/><ellipse cx="50.4" cy="34.94" rx="2.25" ry="0.74"/><ellipse cx="64.35" cy="34.94" rx="2.25" ry="0.74"/><ellipse cx="18.25" cy="19.91" rx="2.08" ry="0.74" transform="matrix(0.83, -0.56, 0.56, 0.83, -8.01, 13.59)"/><ellipse cx="18.29" cy="28.85" rx="0.81" ry="2.08" transform="translate(-15.84 30.26) rotate(-60)"/><ellipse cx="87.86" cy="29.17" rx="1.13" ry="2.11" transform="translate(18.66 90.67) rotate(-60)"/><ellipse cx="96.3" cy="13.78" rx="2.02" ry="0.74"/><ellipse cx="96.52" cy="34.94" rx="2.25" ry="0.74"/><ellipse cx="109.57" cy="34.94" rx="2.25" ry="0.74"/><ellipse cx="122.62" cy="34.94" rx="2.25" ry="0.74"/></g></g></svg>