<svg id="Calque_1" data-name="Calque 1" xmlns="http://www.w3.org/2000/svg" viewBox="0 0 1920 1080"><defs><style>.cls-1{fill:#6a9686;}.cls-2{fill:#fff;}</style></defs><title>ookpreloader</title><rect class="cls-1" width="1920" height="1080"/><g id="Calque_1-2" data-name="Calque 1-2"><path class="cls-2" d="M831.2,537.89a18.4,18.4,0,0,0,16.85-11l10.78,6.93a31.5,31.5,0,0,1-28.3,16.58A33.22,33.22,0,0,1,797.43,517c0-.18,0-.37,0-.56a33.21,33.21,0,0,1,32.65-33.75h.5a31.35,31.35,0,0,1,28.24,16.51L848,506.15a18.22,18.22,0,0,0-16.79-11.08c-13.1,0-20.28,9.67-20.28,21.49S818.16,537.89,831.2,537.89Z"/><path class="cls-2" d="M898.94,482.64a33.46,33.46,0,0,1,33.77,33.15v.61a33.77,33.77,0,1,1-34.44-33.76Zm0,55.25c13.14,0,20-9.67,20-21.49s-6.91-21.48-20-21.48-20,9.67-20,21.48S885.84,537.89,898.94,537.89Z"/><path class="cls-2" d="M945.23,444H959v45.58l.68.67.7-.67a19.8,19.8,0,0,1,15.2-6.91c16.57,0,26.24,11.05,26.24,26.24v39.9H988.05v-39.9c-.43-8.84-4.7-13.81-13.82-13.81a15.35,15.35,0,0,0-15.34,14.64v39.23H945.08Z"/><path class="cls-2" d="M1026.72,519.93a17.58,17.58,0,0,0,17.18,18,14,14,0,0,0,1.45,0c8.29,0,14-4.15,16-9.67l11.61,5.55a31.71,31.71,0,0,1-28.3,16.58c-17.28,0-31.77-13.81-31.77-33.76s13.81-33.77,31.77-33.77c16.57,0,30.38,13.11,30.38,33.15l-1.38,4Zm.68-12.28h33.14a15.33,15.33,0,0,0-15.86-12.7,16.78,16.78,0,0,0-17.28,12.83Z"/><path class="cls-2" d="M1141.36,489.55a22.37,22.37,0,0,1,15.87-6.91c15.35,0,23.48,9.67,23.48,23.48v43H1166.9V507.5c0-8.29-4.15-12.43-11.05-12.43a15.35,15.35,0,0,0-15.35,14.64v39.23h-13.81V507.5c0-8.29-4.14-12.43-11-12.43a15.35,15.35,0,0,0-15.35,14.64v39.23h-13.81V484h12.28l1.38,5.53.71.67.67-.67a19.78,19.78,0,0,1,15.35-6.91c9.94,0,17.12,4.27,20.72,11.05Z"/><ellipse class="cls-2" cx="952.14" cy="443.97" rx="6.91" ry="2.27"/><ellipse class="cls-2" cx="952.14" cy="548.94" rx="6.91" ry="2.27"/><ellipse class="cls-2" cx="994.95" cy="548.94" rx="6.91" ry="2.27"/><ellipse class="cls-2" cx="853.57" cy="502.76" rx="6.39" ry="2.27" transform="translate(-135.2 563.39) rotate(-34.01)"/><ellipse class="cls-2" cx="853.58" cy="530.23" rx="2.49" ry="6.38" transform="translate(-32.4 1004.34) rotate(-60)"/><ellipse class="cls-2" cx="1067.09" cy="531.21" rx="3.47" ry="6.48" transform="translate(73.5 1189.73) rotate(-60)"/><ellipse class="cls-2" cx="1093.02" cy="483.99" rx="6.2" ry="2.27"/><ellipse class="cls-2" cx="1093.69" cy="548.94" rx="6.91" ry="2.27"/><ellipse class="cls-2" cx="1133.75" cy="548.94" rx="6.91" ry="2.27"/><ellipse class="cls-2" cx="1173.8" cy="548.94" rx="6.91" ry="2.27"/></g></svg>